,
.   http://www.scenetime.com/signup.php  ---&gt;  Hottest scene tracker on the net !!!  

    Join Now   http://www.scenetime.com/signup.php

    seed back for speed


 



...................................NFO:.................................................[pre][img]http://i824.photobucket.com/albums/zz161/akosipalos/MC-1.png[/img]   
            
*******************************************************************************
               Margin.Call.2011.480p.BRRip.XviD.AC3-PRESTiGE
*******************************************************************************

-------------------------------------------------------------------------------
                              General Information
-------------------------------------------------------------------------------

TiTLE............: Margin.Call.2011.480p.BRRip.XviD.AC3-PRESTiGE

iMDB.............: http://www.imdb.com/title/tt1615147/

GENRE............: Drama | Thriller   

LANGUAGE.........: English 

FORMAT...........: AVi

SOURCE...........: 720p.BluRay.x264 FUSiON MANY THANKS!!!

FiLE SiZE........: 1.87 GB

SAMPLE iNCLUDED..: Yes

SUBS.............: NoNE

DURATiON.........: 1h 46mn

ENCODED by.......: [b][color=maroon]akosipalos[/color][/b]


ViDEO iNFO:

ID                               : 0
Format                           : MPEG-4 Visual
Format profile                   : Advanced Simple@L5
Format settings, BVOP            : 2
Format settings, QPel            : No
Format settings, GMC             : No warppoints
Format settings, Matrix          : Default (H.263)
Codec ID                         : XVID
Codec ID/Hint                    : XviD
Duration                         : 1h 46mn
Bit rate                         : 2 060 Kbps
Width                            : 720 pixels
Height                           : 384 pixels
Display aspect ratio             : 1.875
Frame rate                       : 24.000 fps
Color space                      : YUV
Chroma subsampling               : 4:2:0
Bit depth                        : 8 bits
Scan type                        : Progressive
Compression mode                 : Lossy
Bits/(Pixel*Frame)               : 0.310
Stream size                      : 1.53 GiB (82%)
Writing library                  : XviD 1.2.1 (UTC 2008-12-04)


AUDiO iNFO:

ID                               : 1
Format                           : AC-3
Format/Info                      : Audio Coding 3
Mode extension                   : CM (complete main)
Codec ID                         : 2000
Duration                         : 1h 46mn
Bit rate mode                    : Constant
Bit rate                         : 448 Kbps
Channel(s)                       : 6 channels
Channel positions                : Front: L C R, Side: L R, LFE
Sampling rate                    : 48.0 KHz
Bit depth                        : 16 bits
Compression mode                 : Lossy
Stream size                      : 341 MiB (18%)
Alignment                        : Aligned on interleaves
Interleave, duration             : 64 ms (1.54 video frames)
Interleave, preload duration     : 192 ms
Title                            : T2_Audio - English


-------------------------------------------------------------------------------
                                 PLOT:
-------------------------------------------------------------------------------


A thriller that revolves around the key people at a investment bank over a 24-hour period during the early stages of the financial crisis.    

 
-------------------------------------------------------------------------------
                                 CAST:
-------------------------------------------------------------------------------


Zachary Quinto 

Stanley Tucci

Kevin Spacey


-------------------------------------------------------------------------------
                               SCREENS:
-------------------------------------------------------------------------------


[img]http://i824.photobucket.com/albums/zz161/akosipalos/1-114.png[/img]

[img]http://i824.photobucket.com/albums/zz161/akosipalos/2-94.png[/img]

[img]http://i824.photobucket.com/albums/zz161/akosipalos/3-94.png[/img]

[img]http://i824.photobucket.com/albums/zz161/akosipalos/4-89.png[/img]

[img]http://i824.photobucket.com/albums/zz161/akosipalos/5-77.png[/img]


-------------------------------------------------------------------------------
                             Release Notes
-------------------------------------------------------------------------------

WE DONT RELEASE EVERYTHING TO OTHERS SITES YOU WANT MORE OF OUR STUFF COME FIND US AT .......

WE ARE LOOKING FOR SUPPLIERS BLURAY CAM R5 PRE RETAIL DVD GOT SOMETHING WE MIGHT LIKE WHEN YOU FIND US TELL US.......



ENCODER'S - ANYTHING AT ALL EMAIL US AT..... prestige@hushmail.me

** ** ** ** ** ** ** ** **

PRESTiGE is the level of respect at which one is regarded by others....RIzE Above Or Sink Below...


-------------------------------------------------------------------------------
                                 GREETZ:
-------------------------------------------------------------------------------


[b]| Twisted | Bigguy | CTFX | Whitestag13 | Jungledave | PA4U2C | mtyy | floridajoe | marsby | cld | Stoner | Rock | Ulap | rizal | mannilim | musikera | centserick2 | AMB | RiZAL Team RG | rock3r | canislupus | sickie | fun2knytz and To All Encoders Past And Present...[/b]


[img]http://i824.photobucket.com/albums/zz161/akosipalos/PRESTiGE-3.png[/img]


[b][color=red]PRESTiGE[/color] is the level of respect at which one is regarded by others....RIzE Above Or Sink Below...[/b]


-------------------------------------------------------------------------------
Generated with Cool NFO Creator - http://fly.to/coolbeans
-------------------------------------------------------------------------------
[/pre]